# xmcd
#
# Track frame offsets: 
#        150
#        17629
#        29465
#        48576
#        61168
#        80614
#        102918
#        112660
#        126084
#        143381
#        162043
#        174150
#        182552
#        187103
#        198695
#        217438
#        229434
#
# Disc length: 3266 seconds
#
# Revision: 3
# Processed by: cddbd v1.5.2PL0 Copyright (c) Steve Scherf et al.
# Submitted via: ExactAudioCopy v1.0b1
#
DISCID=ea0cc011
DTITLE=George Winston - Montana - A Love Story
DYEAR=2004
DGENRE=New Age
TTITLE0=Thumbelina
TTITLE1=Billy In The Low Land
TTITLE2=Valse Frontenac
TTITLE3=The Little House I Used To Live In
TTITLE4=Montana Glide
TTITLE5=Nevertheless, Hello
TTITLE6=The Twisting of The Hay Rope
TTITLE7=Joy, Hope, and Peace
TTITLE8=You Send Me
TTITLE9=High Plains Lullaby
TTITLE10=The Mountain Winds Call Your Name
TTITLE11=Music Box (Kojo no Tsuki)
TTITLE12=Raining In Her (The Muse)
TTITLE13=(Variations On) Bamboo
TTITLE14=Goodnight Irene
TTITLE15=Sweet Soul (Gobajie)
TTITLE16=Sky (Goobajie)
EXTD=YEAR: 2004
EXTT0=
EXTT1=
EXTT2=
EXTT3=
EXTT4=
EXTT5=
EXTT6=
EXTT7=
EXTT8=
EXTT9=
EXTT10=
EXTT11=
EXTT12=
EXTT13=
EXTT14=
EXTT15=
EXTT16=
PLAYORDER=
